<svg xmlns="http://www.w3.org/2000/svg" width="1200" height="356" viewBox="0 0 1200 356" version="1.1">
	<path d="M 144.500 41.202 C 124.068 48.099, 118.042 50.708, 105.444 58.113 C 90.160 67.096, 76.528 79.462, 65.880 94 C 55.247 108.518, 49.966 119.189, 42.799 140.641 L 37.500 156.500 37.500 177.500 L 37.500 198.500 43.416 216.321 C 52.229 242.870, 63.556 261.650, 80.675 278.096 C 99.254 295.946, 114.385 304.348, 146.500 314.650 L 158.500 318.500 178 318.500 L 197.500 318.500 209.500 314.619 C 233.171 306.962, 243.213 302.356, 257.459 292.622 C 289.541 270.699, 310.331 237.395, 316.466 198.095 C 319.425 179.142, 319.251 179, 292.888 179 C 269.143 179, 269.547 178.825, 267.450 190.019 C 265.326 201.361, 263.542 207.009, 259.359 215.634 C 253.821 227.055, 250.644 231.477, 241.063 241.102 C 227.891 254.335, 217.953 259.960, 198.500 265.196 C 187.189 268.240, 168.784 268.223, 157.270 265.158 C 139.947 260.547, 126.520 252.772, 114 240.100 C 102.218 228.176, 95.570 216.242, 90.826 198.500 C 87.807 187.210, 87.822 168.775, 90.859 157.270 C 100.828 119.516, 129.982 93.968, 169.307 88.526 C 173.292 87.974, 174.446 87.316, 176.053 84.680 C 177.778 81.852, 177.993 79.551, 177.996 63.872 C 177.999 49.918, 177.664 45.437, 176.388 42.372 C 175.501 40.242, 174.263 38.169, 173.638 37.765 C 173.012 37.361, 168.900 37.058, 164.500 37.091 C 157.891 37.140, 154.413 37.855, 144.500 41.202 M 257.174 41.292 C 246.883 46.689, 241.295 51.342, 236.590 58.430 C 231.286 66.420, 229 73.822, 229 83 C 229 105.928, 245.905 124.687, 269 127.386 C 290.060 129.848, 311.601 114.498, 316.555 93.500 C 318.396 85.695, 318.362 80.187, 316.426 72.716 C 312.788 58.676, 305.684 50.210, 290.779 42.151 C 281.587 37.181, 280.973 37, 273.304 37 C 265.879 37, 264.817 37.282, 257.174 41.292 M 498 74.931 C 477.464 78.724, 460.419 87.192, 445.808 100.861 C 424.487 120.806, 413 147.604, 413 177.401 C 413 206.904, 424.221 232.934, 445.509 252.815 C 458.561 265.004, 472.550 272.880, 489.500 277.581 C 498.511 280.080, 501.082 280.355, 515.500 280.355 C 529.918 280.355, 532.489 280.080, 541.500 277.581 C 551.943 274.684, 563.698 269.368, 571.447 264.036 C 578.411 259.245, 577.985 257.573, 565.965 242.505 C 554.822 228.537, 552.747 226.979, 548.363 229.295 C 530.580 238.687, 518.169 240.882, 502.713 237.366 C 479.949 232.189, 462.289 214.879, 456.415 191.986 C 453.915 182.241, 454.885 164.857, 458.445 155.594 C 461.715 147.090, 466.452 139.834, 473.030 133.256 C 479.765 126.521, 484.409 123.431, 493.156 119.863 C 510.635 112.733, 530.521 114.489, 547.226 124.637 C 556.502 130.272, 557.772 129.948, 567.672 119.417 C 581.365 104.852, 583.298 102.311, 582.627 99.761 C 581.510 95.517, 565.007 85.068, 551.170 79.841 C 541.962 76.364, 523.339 72.966, 514.151 73.088 C 510.493 73.137, 503.225 73.966, 498 74.931 M 690 74.535 C 661.735 78.805, 637.831 93.229, 620.568 116.433 C 601.051 142.667, 595.578 181.851, 607.082 213 C 618.666 244.365, 644.063 267.929, 676.565 277.466 C 687.541 280.687, 705.357 281.827, 718 280.119 C 755.996 274.983, 787.971 248.265, 800.951 210.805 C 819.952 155.965, 789.506 95.663, 734 78.198 C 720.191 73.853, 703.636 72.475, 690 74.535 M 924.343 75.019 C 910.279 77.519, 903.281 80.174, 887.202 89.111 C 882.975 91.461, 882.880 91.468, 881.452 89.559 C 880.653 88.491, 880 85.936, 880 83.880 C 880 77.339, 879.011 77, 859.929 77 C 844.333 77, 842.842 77.158, 841 79 C 839.027 80.973, 839 82.333, 839 178 C 839 273.667, 839.027 275.027, 841 277 C 842.842 278.842, 844.333 279, 859.845 279 C 874.681 279, 876.881 278.789, 878.290 277.233 C 879.705 275.668, 879.931 269.138, 880.256 220.483 C 880.608 167.766, 880.709 165.253, 882.717 159.500 C 888.685 142.399, 898.699 130.258, 913.500 122.178 C 919.428 118.942, 928.789 116, 933.157 116 C 935.667 116, 937.694 115.306, 939 114 C 940.848 112.152, 941 110.667, 941 94.500 C 941 78.333, 940.848 76.848, 939 75 C 936.686 72.686, 937.480 72.685, 924.343 75.019 M 1041 75.488 C 1019.551 79.158, 999.900 89.814, 984.651 106.041 C 971.375 120.170, 964.075 133.247, 958.890 152.192 C 956.948 159.286, 956.611 162.984, 956.585 177.500 C 956.551 195.740, 957.683 202.238, 963.440 216.873 C 976.134 249.136, 1007.295 274.462, 1041.034 279.936 C 1049.342 281.284, 1067.658 281.284, 1075.966 279.936 C 1079.523 279.359, 1085.373 277.959, 1088.966 276.825 C 1096.043 274.592, 1110.502 267.761, 1113.069 265.438 C 1113.943 264.647, 1115.860 264, 1117.329 264 C 1120.247 264, 1120.217 263.908, 1120.392 273.337 C 1120.562 282.511, 1121.599 283.001, 1140.861 282.996 C 1154.687 282.993, 1156.877 282.763, 1159.750 281.011 L 1163 279.029 1163 178.538 L 1163 78.046 1160.299 76.273 C 1158.047 74.795, 1154.926 74.456, 1141.549 74.233 C 1126.994 73.991, 1125.272 74.145, 1123.049 75.889 C 1120.963 77.525, 1120.575 78.727, 1120.440 83.965 C 1120.239 91.759, 1119.029 93.154, 1114.707 90.569 C 1106.459 85.638, 1098.106 81.490, 1092.086 79.335 C 1078.306 74.403, 1056.805 72.784, 1041 75.488 M 684.967 118.834 C 666.081 125.658, 653.830 137.674, 646.338 156.723 C 643.940 162.820, 643.664 164.855, 643.586 177 C 643.492 191.773, 644.735 196.888, 651.364 209 C 655.447 216.459, 667.025 227.719, 674.899 231.888 C 713.582 252.369, 760.938 226.161, 764.600 182.244 C 765.695 169.114, 761.566 153.197, 754.373 142.817 C 746.638 131.654, 733.587 122.095, 720.645 118.110 C 710.196 114.894, 695.020 115.201, 684.967 118.834 M 1041 118.392 C 1029.177 122.606, 1023.773 125.965, 1015.958 133.956 C 982.626 168.039, 997.619 224.357, 1043.403 237.044 C 1070.871 244.656, 1100.686 230.544, 1113.764 203.741 C 1117.088 196.929, 1120 184.689, 1120 177.530 C 1120 170.437, 1116.712 156.440, 1113.660 150.545 C 1105.561 134.897, 1091.667 123.043, 1075.645 118.110 C 1065.750 115.064, 1049.976 115.192, 1041 118.392" stroke="none" fill="#ffffff" fill-rule="evenodd"/>
</svg>